<svg width="22" height="22" viewBox="0 0 22 22" fill="none" xmlns="http://www.w3.org/2000/svg">
<path d="M19.25 6.28572C19.25 5.66057 19.0017 5.06102 18.5596 4.61897C18.1176 4.17692 17.518 3.92858 16.8929 3.92858H16.3036V3.35587C16.3036 3.03876 16.0598 2.76658 15.7426 2.75074C15.663 2.7469 15.5833 2.75928 15.5086 2.78713C15.4338 2.81497 15.3655 2.8577 15.3078 2.91273C15.25 2.96776 15.204 3.03394 15.1726 3.10726C15.1412 3.18059 15.125 3.25952 15.125 3.33929V3.92858H6.875V3.35587C6.875 3.03876 6.63118 2.76658 6.31407 2.75074C6.2344 2.7469 6.15477 2.75928 6.08002 2.78713C6.00527 2.81497 5.93695 2.8577 5.8792 2.91273C5.82145 2.96776 5.77547 3.03394 5.74405 3.10726C5.71264 3.18059 5.69644 3.25952 5.69643 3.33929V3.92858H5.10714C4.48199 3.92858 3.88244 4.17692 3.44039 4.61897C2.99834 5.06102 2.75 5.66057 2.75 6.28572V6.72769C2.75 6.76676 2.76552 6.80423 2.79315 6.83186C2.82078 6.85949 2.85825 6.87501 2.89732 6.87501H19.1027C19.1418 6.87501 19.1792 6.85949 19.2069 6.83186C19.2345 6.80423 19.25 6.76676 19.25 6.72769V6.28572ZM2.75 16.8929C2.75 17.518 2.99834 18.1176 3.44039 18.5596C3.88244 19.0017 4.48199 19.25 5.10714 19.25H16.8929C17.518 19.25 18.1176 19.0017 18.5596 18.5596C19.0017 18.1176 19.25 17.518 19.25 16.8929V8.16407C19.25 8.13477 19.2384 8.10666 19.2176 8.08594C19.1969 8.06522 19.1688 8.05358 19.1395 8.05358H2.86049C2.83119 8.05358 2.80308 8.06522 2.78236 8.08594C2.76164 8.10666 2.75 8.13477 2.75 8.16407V16.8929ZM15.4196 9.23215C15.5945 9.23215 15.7654 9.28399 15.9107 9.38112C16.0561 9.47825 16.1694 9.6163 16.2363 9.77781C16.3032 9.93933 16.3207 10.1171 16.2866 10.2885C16.2525 10.46 16.1683 10.6175 16.0447 10.7411C15.9211 10.8647 15.7636 10.9489 15.5921 10.983C15.4206 11.0171 15.2429 10.9996 15.0814 10.9327C14.9199 10.8658 14.7818 10.7525 14.6847 10.6072C14.5876 10.4618 14.5357 10.2909 14.5357 10.1161C14.5357 9.88165 14.6288 9.65681 14.7946 9.49105C14.9604 9.32528 15.1852 9.23215 15.4196 9.23215ZM15.4196 12.1786C15.5945 12.1786 15.7654 12.2304 15.9107 12.3275C16.0561 12.4247 16.1694 12.5627 16.2363 12.7242C16.3032 12.8858 16.3207 13.0635 16.2866 13.235C16.2525 13.4064 16.1683 13.5639 16.0447 13.6875C15.9211 13.8112 15.7636 13.8953 15.5921 13.9295C15.4206 13.9636 15.2429 13.9461 15.0814 13.8791C14.9199 13.8122 14.7818 13.699 14.6847 13.5536C14.5876 13.4082 14.5357 13.2373 14.5357 13.0625C14.5357 12.8281 14.6288 12.6032 14.7946 12.4375C14.9604 12.2717 15.1852 12.1786 15.4196 12.1786ZM12.4732 9.23215C12.648 9.23215 12.8189 9.28399 12.9643 9.38112C13.1097 9.47825 13.223 9.6163 13.2899 9.77781C13.3568 9.93933 13.3743 10.1171 13.3402 10.2885C13.3061 10.46 13.2219 10.6175 13.0982 10.7411C12.9746 10.8647 12.8171 10.9489 12.6457 10.983C12.4742 11.0171 12.2965 10.9996 12.135 10.9327C11.9734 10.8658 11.8354 10.7525 11.7383 10.6072C11.6411 10.4618 11.5893 10.2909 11.5893 10.1161C11.5893 9.88165 11.6824 9.65681 11.8482 9.49105C12.014 9.32528 12.2388 9.23215 12.4732 9.23215ZM12.4732 12.1786C12.648 12.1786 12.8189 12.2304 12.9643 12.3275C13.1097 12.4247 13.223 12.5627 13.2899 12.7242C13.3568 12.8858 13.3743 13.0635 13.3402 13.235C13.3061 13.4064 13.2219 13.5639 13.0982 13.6875C12.9746 13.8112 12.8171 13.8953 12.6457 13.9295C12.4742 13.9636 12.2965 13.9461 12.135 13.8791C11.9734 13.8122 11.8354 13.699 11.7383 13.5536C11.6411 13.4082 11.5893 13.2373 11.5893 13.0625C11.5893 12.8281 11.6824 12.6032 11.8482 12.4375C12.014 12.2717 12.2388 12.1786 12.4732 12.1786ZM12.4732 15.125C12.648 15.125 12.8189 15.1768 12.9643 15.274C13.1097 15.3711 13.223 15.5092 13.2899 15.6707C13.3568 15.8322 13.3743 16.0099 13.3402 16.1814C13.3061 16.3528 13.2219 16.5103 13.0982 16.634C12.9746 16.7576 12.8171 16.8418 12.6457 16.8759C12.4742 16.91 12.2965 16.8925 12.135 16.8256C11.9734 16.7587 11.8354 16.6454 11.7383 16.5C11.6411 16.3547 11.5893 16.1838 11.5893 16.0089C11.5893 15.7745 11.6824 15.5497 11.8482 15.3839C12.014 15.2181 12.2388 15.125 12.4732 15.125ZM9.52679 12.1786C9.70161 12.1786 9.87251 12.2304 10.0179 12.3275C10.1632 12.4247 10.2765 12.5627 10.3434 12.7242C10.4103 12.8858 10.4278 13.0635 10.3937 13.235C10.3596 13.4064 10.2754 13.5639 10.1518 13.6875C10.0282 13.8112 9.8707 13.8953 9.69923 13.9295C9.52777 13.9636 9.35004 13.9461 9.18852 13.8791C9.027 13.8122 8.88895 13.699 8.79183 13.5536C8.6947 13.4082 8.64286 13.2373 8.64286 13.0625C8.64286 12.8281 8.73599 12.6032 8.90175 12.4375C9.06752 12.2717 9.29235 12.1786 9.52679 12.1786ZM9.52679 15.125C9.70161 15.125 9.87251 15.1768 10.0179 15.274C10.1632 15.3711 10.2765 15.5092 10.3434 15.6707C10.4103 15.8322 10.4278 16.0099 10.3937 16.1814C10.3596 16.3528 10.2754 16.5103 10.1518 16.634C10.0282 16.7576 9.8707 16.8418 9.69923 16.8759C9.52777 16.91 9.35004 16.8925 9.18852 16.8256C9.027 16.7587 8.88895 16.6454 8.79183 16.5C8.6947 16.3547 8.64286 16.1838 8.64286 16.0089C8.64286 15.7745 8.73599 15.5497 8.90175 15.3839C9.06752 15.2181 9.29235 15.125 9.52679 15.125ZM6.58036 12.1786C6.75518 12.1786 6.92608 12.2304 7.07144 12.3275C7.2168 12.4247 7.3301 12.5627 7.397 12.7242C7.4639 12.8858 7.48141 13.0635 7.4473 13.235C7.41319 13.4064 7.32901 13.5639 7.20539 13.6875C7.08177 13.8112 6.92427 13.8953 6.7528 13.9295C6.58134 13.9636 6.40361 13.9461 6.24209 13.8791C6.08058 13.8122 5.94252 13.699 5.8454 13.5536C5.74827 13.4082 5.69643 13.2373 5.69643 13.0625C5.69643 12.8281 5.78956 12.6032 5.95533 12.4375C6.12109 12.2717 6.34592 12.1786 6.58036 12.1786ZM6.58036 15.125C6.75518 15.125 6.92608 15.1768 7.07144 15.274C7.2168 15.3711 7.3301 15.5092 7.397 15.6707C7.4639 15.8322 7.48141 16.0099 7.4473 16.1814C7.41319 16.3528 7.32901 16.5103 7.20539 16.634C7.08177 16.7576 6.92427 16.8418 6.7528 16.8759C6.58134 16.91 6.40361 16.8925 6.24209 16.8256C6.08058 16.7587 5.94252 16.6454 5.8454 16.5C5.74827 16.3547 5.69643 16.1838 5.69643 16.0089C5.69643 15.7745 5.78956 15.5497 5.95533 15.3839C6.12109 15.2181 6.34592 15.125 6.58036 15.125Z" fill="#8DD3BB"/>
</svg>
